<svg width="265" height="193" viewBox="0 0 265 193" fill="none" xmlns="http://www.w3.org/2000/svg">
<g clip-path="url(#clip0_4_4692)">
<path d="M228.333 186.856L173.171 187.057C158.537 182.207 146.547 165.36 146.471 140.103C146.456 136.298 146.717 132.498 147.25 128.738L191.681 117.728L225.956 109.235C228.482 111.73 230.835 114.429 232.997 117.31L200.222 136.399L184.76 145.405L202.134 138.793L238.195 125.071C240.444 128.863 242.447 132.826 244.191 136.929L233.311 149.332L245.619 140.444C245.672 140.58 245.724 140.717 245.776 140.853C253.577 161.28 243.898 186.799 228.333 186.856Z" fill="#DEDDDD"/>
<path d="M219.268 103.519C210.926 106.161 200.67 109.5 190.126 112.97C174.88 117.989 159.031 123.286 147.492 127.158L147.5 127.112C147.926 124.395 148.929 121.828 150.426 119.62C158.973 107.362 169.857 98.7988 181.97 95.6187H181.971C185.378 94.7225 188.866 94.2634 192.368 94.2505C202.005 94.2153 211.134 97.5494 219.268 103.519Z" fill="#DEDDDD"/>
<path d="M61.362 148.668L51.8248 180.174L49.4832 187.914C48.3559 189.793 47.0122 191.503 45.4859 193H45.2621C33.2461 193 22.3348 192.318 14.2944 191.211L15.4135 181.748L17.8152 161.451L20.886 135.459C22.7013 134.154 24.6021 132.999 26.5727 132.005L29.2801 158.964L30.558 171.682L30.9286 158.064L31.6963 129.799C34.1173 128.936 36.5933 128.272 39.1037 127.814L43.1251 137.927L41.2239 127.474C41.3057 127.463 41.3875 127.45 41.4693 127.44C53.6778 125.818 64.7119 137.593 61.362 148.668Z" fill="#DEDDDD"/>
<path d="M16.4916 139.117C16.0392 145.554 15.5314 153.483 15.0261 161.645C14.6025 168.507 14.1838 175.531 13.8059 181.965C13.6182 185.175 13.4401 188.238 13.2789 191.062C11.912 190.863 10.6341 190.648 9.45727 190.425C8.2963 188.151 7.30397 185.778 6.48997 183.327C4.42033 177.097 3.62857 170.564 4.32407 164.111V164.109C4.6037 161.507 5.12464 158.943 5.87871 156.458C7.93486 149.729 11.6018 143.737 16.4916 139.117Z" fill="#DEDDDD"/>
<path d="M90.0242 186.552C90.0242 190.104 70.1026 192.981 45.4859 193H45.2621C33.2461 193 22.3347 192.318 14.2944 191.211C13.9503 191.16 13.611 191.113 13.2789 191.062C11.9119 190.863 10.634 190.648 9.45723 190.425C3.83309 189.345 0.5 188.004 0.5 186.552C0.5 185.376 2.68035 184.277 6.48994 183.327C8.50182 182.825 10.9661 182.369 13.8059 181.965C14.3281 181.888 14.864 181.816 15.4135 181.748C23.3335 180.726 33.7948 180.104 45.2621 180.104C47.4906 180.104 49.6829 180.128 51.8248 180.174C73.4333 180.63 90.0242 183.311 90.0242 186.552Z" fill="#261430"/>
<path d="M36.5813 130.107L37.706 139.783C37.706 139.783 38.1559 143.009 38.6058 144.745C38.6058 144.745 38.1559 153.926 41.7549 160.376L44.0043 165.091L44.4542 172.038L50.0777 172.782L48.953 162.361C48.953 162.361 48.5031 157.399 48.953 155.414C49.4029 153.429 46.7036 144.249 46.7036 144.249C46.7036 144.249 50.3026 131.347 47.6034 128.122C44.9041 124.896 36.5813 130.107 36.5813 130.107Z" fill="#DAAB85"/>
<path d="M46.4786 170.053C46.4786 170.053 44.0043 170.053 43.7794 170.797C43.5544 171.542 39.9554 178.241 39.9554 178.241C39.9554 178.241 36.8062 183.699 41.305 183.947C45.8038 184.195 47.1534 181.962 47.1534 181.962C47.1534 181.962 51.2024 174.767 51.4273 173.527C51.6522 172.286 49.7372 169.627 49.7372 169.627C49.7372 169.627 47.1535 171.542 46.4786 170.053Z" fill="#A3C9FF"/>
<path d="M49.6278 48.4776C53.8517 48.4776 57.2758 44.7008 57.2758 40.0418C57.2758 35.3828 53.8517 31.606 49.6278 31.606C45.404 31.606 41.9799 35.3828 41.9799 40.0418C41.9799 44.7008 45.404 48.4776 49.6278 48.4776Z" fill="#DAAB85"/>
<path d="M43.4419 42.647C43.4419 42.647 43.4419 51.8271 40.5177 52.5715C37.5935 53.3158 44.5666 61.7517 48.3906 60.7592C52.2146 59.7668 53.7892 53.0677 53.7892 53.0677C53.7892 53.0677 50.4151 48.3536 51.7647 45.8724C53.1143 43.3913 43.4419 42.647 43.4419 42.647Z" fill="#DAAB85"/>
<path d="M46.7035 55.4247C45.6298 55.3876 44.5798 55.0677 43.641 54.4918C42.7022 53.9158 41.902 53.1005 41.3071 52.1139C41.3071 52.1139 38.1558 52.6955 37.7059 52.9436C37.256 53.1917 29.3831 55.9209 27.5836 61.6275L34.7817 71.8002C34.7817 71.8002 33.2071 86.1907 34.7817 92.6416C35.7193 96.5055 35.4823 100.602 34.1069 104.303C34.1069 104.303 33.4321 104.551 34.5568 105.047C35.6815 105.544 61.5495 99.8369 61.9994 98.3482C62.4493 96.8596 61.5496 96.8596 62.2244 96.1152C62.8992 95.3709 64.6987 90.9048 62.8992 89.4162C61.0997 87.9275 59.975 71.552 59.975 71.552L64.6987 58.4021C64.6987 58.4021 56.0654 50.7916 52.9591 51.7435C52.959 51.7435 52.327 55.4247 46.7035 55.4247Z" fill="#D8E3F8"/>
<path d="M49.6277 125.144C49.6277 125.144 49.1778 136.061 50.0776 140.279C50.9774 144.497 50.9774 146.234 50.9774 146.234C50.9774 146.234 49.6277 153.429 50.3025 160.128C50.9774 166.827 49.5153 177.625 49.5153 177.625L55.0263 179.481L58.4004 160.625C58.4004 160.625 61.0997 148.963 59.5251 143.505C59.5251 143.505 60.4248 126.881 61.0997 125.144C61.7745 123.408 49.6277 125.144 49.6277 125.144Z" fill="#DAAB85"/>
<path d="M43.5918 41.5441C43.6932 40.7528 43.9077 39.8897 44.5194 39.4615C45.1544 39.0169 45.9742 39.1993 46.7243 39.2598C47.4744 39.3203 48.3936 39.1133 48.6402 38.3295C48.7939 37.8408 48.6278 37.2568 48.8677 36.8123C49.2494 36.1049 50.4147 36.1856 50.6157 35.3928C50.6794 35.1417 50.6175 34.8614 50.7094 34.6212C50.8333 34.2971 51.1814 34.168 51.492 34.0886C52.6279 33.7987 53.7949 33.6853 54.9592 33.7516C55.0732 33.7741 55.1907 33.7485 55.2883 33.6798C55.3396 33.6236 55.3763 33.5531 55.3944 33.4758C55.6578 32.6071 55.3789 31.6214 54.8548 30.9108C54.2981 30.2264 53.6117 29.6855 52.8444 29.3263C51.1453 28.4174 49.3036 27.8776 47.4196 27.7362C45.9848 27.6368 44.4787 27.8091 43.2566 28.6442C42.8944 28.8969 42.5583 29.1924 42.2542 29.5256C40.9247 30.9962 40.0579 32.8983 39.7811 34.9525C39.5127 37.0018 39.7206 39.0928 40.3853 41.0292C40.7736 42.1949 41.386 43.3989 42.3337 44.1172C42.8416 44.5022 43.2795 44.8577 43.4904 44.2039C43.7141 43.5107 43.4934 42.3124 43.5918 41.5441Z" fill="#A3C9FF"/>
<path d="M35.2316 102.814C35.2316 102.814 31.8575 107.777 32.5323 111.25C33.2072 114.724 35.6815 120.43 35.6815 120.43C35.6815 120.43 34.3319 131.595 36.5813 131.595C38.8307 131.595 48.5031 131.099 48.728 129.859C48.953 128.618 48.0532 116.212 48.0532 116.212C48.0532 116.212 49.1779 127.129 49.8527 127.129C50.5275 127.129 62.2244 128.37 62.6743 127.626C63.1242 126.881 64.0239 107.777 64.0239 107.777C64.0239 107.777 65.2508 98.7665 61.3757 97.565C57.5007 96.3634 35.2316 102.814 35.2316 102.814Z" fill="#A3C9FF"/>
<path d="M53.2268 177.496C53.2268 177.496 49.1779 175.015 48.953 177C48.728 178.985 46.2537 186.18 46.2537 186.18C46.2537 186.18 43.7794 191.887 49.1779 192.135C54.5765 192.383 55.9261 189.654 55.9261 188.413C55.9261 187.173 55.3211 178.662 55.3211 178.662L53.2268 177.496Z" fill="#A3C9FF"/>
<path d="M67.1731 71.8003L68.2978 82.7173C68.2978 82.7173 69.6474 88.672 68.7477 91.1531C67.8479 93.6342 64.4738 105.047 64.4738 105.047C64.4738 105.047 63.574 98.8446 61.3246 98.1003L62.6743 83.9578C62.6743 83.9578 59.4538 75.1326 60.1643 73.9627C60.8747 72.7927 67.1731 71.8003 67.1731 71.8003Z" fill="#DAAB85"/>
<path d="M27.1338 72.5444L27.5837 82.4689C27.5837 82.4689 26.0091 91.1529 29.1582 100.333L29.6081 104.303L32.5323 110.506C32.5323 110.506 33.2072 104.551 34.5568 104.551C34.5568 104.551 33.2072 100.581 33.657 98.3482C34.1069 96.1152 33.4321 84.2057 33.4321 84.2057L34.5568 74.5714L27.1338 72.5444Z" fill="#DAAB85"/>
<path d="M62.2244 58.1541H64.6988C64.6988 58.1541 70.5472 73.0408 68.2978 73.2889C66.0484 73.5371 58.8503 75.522 58.6254 74.5295C58.4005 73.5371 62.2244 58.1541 62.2244 58.1541Z" fill="#D8E3F8"/>
<path d="M29.6081 59.3945L27.5836 61.6276C27.5836 61.6276 24.8843 72.7926 26.9088 74.0332C28.9332 75.2738 36.5812 76.7624 37.0311 75.77C37.481 74.7775 29.6081 59.3945 29.6081 59.3945Z" fill="#D8E3F8"/>
<path d="M190.879 7.7325V179.796C190.877 181.846 190.137 183.811 188.823 185.26C187.509 186.708 185.726 187.523 183.868 187.523H120.539C119.619 187.525 118.707 187.326 117.856 186.939C117.005 186.551 116.232 185.982 115.581 185.264C114.929 184.547 114.413 183.694 114.061 182.756C113.709 181.817 113.528 180.812 113.529 179.796V7.73251C113.529 6.71704 113.71 5.71149 114.063 4.7733C114.415 3.83511 114.931 2.98265 115.582 2.2646C116.233 1.54656 117.006 0.976987 117.857 0.588423C118.707 0.199859 119.619 -8.74958e-05 120.539 3.62781e-07H130.017V1.34052C130.016 3.02905 130.624 4.64852 131.706 5.84274C132.789 7.03696 134.257 7.70813 135.787 7.70862H167.997C169.229 7.71152 170.429 7.27584 171.419 6.46632C171.619 6.30579 171.809 6.13017 171.987 5.94073C172.551 5.34693 172.999 4.633 173.305 3.84223C173.612 3.05147 173.769 2.20035 173.768 1.34052V3.62781e-07H183.868C184.789 -0.00031075 185.701 0.199483 186.551 0.587967C187.402 0.976451 188.175 1.54601 188.826 2.2641C189.477 2.98219 189.993 3.83474 190.345 4.77303C190.698 5.71132 190.879 6.71696 190.879 7.7325Z" fill="#6C5677"/>
<path opacity="0.1" d="M161.018 73.1688C170.986 73.1688 179.067 71.3861 179.067 69.187C179.067 66.988 170.986 65.2053 161.018 65.2053C151.049 65.2053 142.969 66.988 142.969 69.187C142.969 71.3861 151.049 73.1688 161.018 73.1688Z" fill="#D8E3F8"/>
<path opacity="0.1" d="M134.786 93.6082C144.754 93.6082 152.835 91.8255 152.835 89.6265C152.835 87.4275 144.754 85.6448 134.786 85.6448C124.818 85.6448 116.737 87.4275 116.737 89.6265C116.737 91.8255 124.818 93.6082 134.786 93.6082Z" fill="#D8E3F8"/>
<path opacity="0.1" d="M149.707 131.036C159.675 131.036 167.756 129.254 167.756 127.055C167.756 124.856 159.675 123.073 149.707 123.073C139.739 123.073 131.658 124.856 131.658 127.055C131.658 129.254 139.739 131.036 149.707 131.036Z" fill="#D8E3F8"/>
<path opacity="0.1" d="M144.653 171.65C154.621 171.65 162.702 169.867 162.702 167.668C162.702 165.469 154.621 163.687 144.653 163.687C134.685 163.687 126.604 165.469 126.604 167.668C126.604 169.867 134.685 171.65 144.653 171.65Z" fill="#D8E3F8"/>
<path d="M207.344 107.107H152.474V113.021V122.026V127.094L157.068 122.026H207.344V107.107Z" fill="#0060AA"/>
<path d="M76.5474 69.0154H131.417V74.929V83.9346V89.0018L126.823 83.9346H76.5474V69.0154Z" fill="#0060AA"/>
<path d="M195.584 110.73H164.716V113.49H195.584V110.73Z" fill="white"/>
<path d="M195.584 114.871H164.716V117.631H195.584V114.871Z" fill="white"/>
<path d="M116.769 72.9033H85.9009V75.664H116.769V72.9033Z" fill="white"/>
<path d="M116.769 77.0442H85.9009V79.8049H116.769V77.0442Z" fill="white"/>
<path d="M264.5 31.4934H161.018V42.6465V59.6309V69.1871L169.681 59.6309H264.5V31.4934Z" fill="#0060AA"/>
<path d="M248.376 37.864H177.142V44.2348H248.376V37.864Z" fill="white"/>
<path d="M248.376 47.4202H177.142V53.7909H248.376V47.4202Z" fill="white"/>
<path d="M138.117 159.707C140.751 165.095 146.341 167.408 146.341 167.408C146.341 167.408 147.661 160.985 145.027 155.597C142.393 150.209 136.803 147.896 136.803 147.896C136.803 147.896 135.483 154.319 138.117 159.707Z" fill="white"/>
<path d="M139.927 157.934C144.683 161.09 146.514 167.359 146.514 167.359C146.514 167.359 140.636 168.51 135.88 165.354C131.125 162.199 129.293 155.93 129.293 155.93C129.293 155.93 135.172 154.779 139.927 157.934Z" fill="#0060AA"/>
</g>
<defs>
<clipPath id="clip0_4_4692">
<rect width="264" height="193" fill="white" transform="translate(0.5)"/>
</clipPath>
</defs>
</svg>
