<svg width="1280" height="222" viewBox="0 0 1280 222" fill="none" xmlns="http://www.w3.org/2000/svg">
<mask id="mask0_4_4728" style="mask-type:alpha" maskUnits="userSpaceOnUse" x="0" y="0" width="1280" height="222">
<rect width="1280" height="221.45" fill="#D9D9D9"/>
</mask>
<g mask="url(#mask0_4_4728)">
<path fill-rule="evenodd" clip-rule="evenodd" d="M0 39.1858L53.3333 32.4665C106.667 25.7472 213.333 12.614 320 8.33813C426.667 3.75678 533.333 8.33813 640 14.752C746.667 21.4713 853.333 30.3286 960 32.4665C1066.67 34.6045 1173.33 30.3286 1226.67 28.1906L1280 25.7472V131.424H1226.67C1173.33 131.424 1066.67 131.424 960 131.424C853.333 131.424 746.667 131.424 640 131.424C533.333 131.424 426.667 131.424 320 131.424C213.333 131.424 106.667 131.424 53.3333 131.424H0V39.1858Z" fill="#C2E4FA"/>
<path fill-rule="evenodd" clip-rule="evenodd" d="M1280 221.167L1226.67 227.887C1173.33 234.606 1066.67 247.739 960 252.015C853.333 256.596 746.667 252.015 640 245.601C533.333 238.882 426.667 230.025 320 227.887C213.333 225.749 106.667 230.025 53.3334 232.163L0 234.606V128.93H53.3334C106.667 128.93 213.333 128.93 320 128.93C426.667 128.93 533.333 128.93 640 128.93C746.667 128.93 853.333 128.93 960 128.93C1066.67 128.93 1173.33 128.93 1226.67 128.93H1280V221.167Z" fill="#C2E4FA"/>
</g>
</svg>
